<mxfile host="app.diagrams.net" modified="2022-08-17T08:26:30.220Z" agent="5.0 (Windows NT 10.0; Win64; x64) AppleWebKit/537.36 (KHTML, like Gecko) Chrome/104.0.5112.81 Safari/537.36 Edg/104.0.1293.54" etag="KPXBtQwLAzlsIEyrSGue" version="20.2.4" type="github">
  <diagram id="-vz4P1ZITSGPAcEF1N8J" name="Page-1">
    <mxGraphModel dx="1422" dy="794" grid="1" gridSize="10" guides="1" tooltips="1" connect="1" arrows="1" fold="1" page="1" pageScale="1" pageWidth="827" pageHeight="1169" math="0" shadow="0">
      <root>
        <mxCell id="0" />
        <mxCell id="1" parent="0" />
        <mxCell id="q0Rex6J8z_JQCzWFVHfo-3" value="" style="edgeStyle=orthogonalEdgeStyle;rounded=0;orthogonalLoop=1;jettySize=auto;html=1;" parent="1" source="q0Rex6J8z_JQCzWFVHfo-1" target="q0Rex6J8z_JQCzWFVHfo-2" edge="1">
          <mxGeometry relative="1" as="geometry" />
        </mxCell>
        <mxCell id="q0Rex6J8z_JQCzWFVHfo-5" value="" style="edgeStyle=orthogonalEdgeStyle;rounded=0;orthogonalLoop=1;jettySize=auto;html=1;" parent="1" source="q0Rex6J8z_JQCzWFVHfo-1" target="q0Rex6J8z_JQCzWFVHfo-4" edge="1">
          <mxGeometry relative="1" as="geometry" />
        </mxCell>
        <mxCell id="q0Rex6J8z_JQCzWFVHfo-7" value="" style="edgeStyle=orthogonalEdgeStyle;rounded=0;orthogonalLoop=1;jettySize=auto;html=1;" parent="1" source="q0Rex6J8z_JQCzWFVHfo-1" target="q0Rex6J8z_JQCzWFVHfo-6" edge="1">
          <mxGeometry relative="1" as="geometry" />
        </mxCell>
        <mxCell id="q0Rex6J8z_JQCzWFVHfo-1" value="流程管理器" style="rounded=0;whiteSpace=wrap;html=1;" parent="1" vertex="1">
          <mxGeometry x="400" y="100" width="120" height="60" as="geometry" />
        </mxCell>
        <mxCell id="q0Rex6J8z_JQCzWFVHfo-2" value="切换流程" style="whiteSpace=wrap;html=1;rounded=0;" parent="1" vertex="1">
          <mxGeometry x="400" y="240" width="120" height="60" as="geometry" />
        </mxCell>
        <mxCell id="q0Rex6J8z_JQCzWFVHfo-4" value="存在流程" style="rounded=0;whiteSpace=wrap;html=1;" parent="1" vertex="1">
          <mxGeometry x="270" y="240" width="120" height="60" as="geometry" />
        </mxCell>
        <mxCell id="q0Rex6J8z_JQCzWFVHfo-6" value="获取流程" style="whiteSpace=wrap;html=1;rounded=0;" parent="1" vertex="1">
          <mxGeometry x="560" y="240" width="120" height="60" as="geometry" />
        </mxCell>
        <mxCell id="vNqGafequIF6js2vLs9z-3" value="" style="edgeStyle=orthogonalEdgeStyle;rounded=0;orthogonalLoop=1;jettySize=auto;html=1;" edge="1" parent="1" source="vNqGafequIF6js2vLs9z-1" target="vNqGafequIF6js2vLs9z-2">
          <mxGeometry relative="1" as="geometry" />
        </mxCell>
        <mxCell id="vNqGafequIF6js2vLs9z-1" value="socket" style="whiteSpace=wrap;html=1;" vertex="1" parent="1">
          <mxGeometry x="250" y="460" width="120" height="60" as="geometry" />
        </mxCell>
        <mxCell id="vNqGafequIF6js2vLs9z-2" value="网络连接" style="whiteSpace=wrap;html=1;" vertex="1" parent="1">
          <mxGeometry x="250" y="600" width="120" height="60" as="geometry" />
        </mxCell>
      </root>
    </mxGraphModel>
  </diagram>
</mxfile>
